# xmcd
#
# Track frame offsets:
#	150
#	15517
#	31751
#	47841
#	62000
#	77975
#	92283
#	107590
#	122824
#	139307
#	153393
#	169409
#	183617
#	200667
#	217142
#	231390
#	247354
#	261873
#	277230
#	292925
#	309137
#
# Disc length: 4339 seconds
#
# Revision: 0
# Processed by: cddbd v1.5.2PL0 Copyright (c) Steve Scherf et al.
# Submitted via: EZCDAudioConverter 7.1.0.1
#
DISCID=3b10f115
DTITLE=Nu Country Traxx Volume 230 US
DYEAR=2018
DGENRE=country
TTITLE0=Jason Aldean ft. Miranda Lambert - Drowns The Whiskey
TTITLE1=Luke Bryan - Sunrise, Sunburn, Sunset
TTITLE2=Sam Hunt - Downtown's Dead
TTITLE3=Krystal Keith and Lance Carpenter - Anyone Else
TTITLE4=Jennifer Grant - Feels Like Cheating
TTITLE5=Dustin Lynch - Good Girl
TTITLE6=Mags - Strong Enough
TTITLE7=Abby Anderson - Make Him Wait
TTITLE8=Brandon Lay - Yada Yada Yada
TTITLE9=Joe Nichols - Billy Graham's Bible
TTITLE10=Clare Dunn - More
TTITLE11=Maddie and Tae - Friends Don't
TTITLE12=April Kry - Perfectly Imperfect
TTITLE13=Brandon Maddox - Good Side
TTITLE14=Rachel Steele ft. Bobby Randall - Here To Get My Stuff
TTITLE15=Ryan Sims - American Things
TTITLE16=Kira Isabella - Little Girl
TTITLE17=Don Amero - Live While I'm Alive
TTITLE18=Beverley Mahood - How 'Bout That
TTITLE19=George Canyon - Better Off In Love
TTITLE20=Becca Hess - Stranded
EXTD=
EXTT0=
EXTT1=
EXTT2=
EXTT3=
EXTT4=
EXTT5=
EXTT6=
EXTT7=
EXTT8=
EXTT9=
EXTT10=
EXTT11=
EXTT12=
EXTT13=
EXTT14=
EXTT15=
EXTT16=
EXTT17=
EXTT18=
EXTT19=
EXTT20=
PLAYORDER=
